<svg xmlns="http://www.w3.org/2000/svg" width="32" height="32" id="swastik">
  <g fill-rule="evenodd" color="#000" font-family="sans-serif" font-weight="400">
    <path fill="#fd0437" d="M3.75 1023.861c-.261 0-.509.043-.75.106a2.986 2.986 0 0 1 2.25 2.894v9.502c0 .489.08.977.43 1.32l.013.015c.007.01.015.013.022.02.339.322.76.394 1.27.394h7.265v6H6c-1.662 0-3 1.338-3 3v1.5c0 .261.043.51.106.75a2.986 2.986 0 0 1 2.894-2.25h9.75c.98 0 1.5-.814 1.5-1.742v-7.258h6v8.25c0 1.662 1.338 3 3 3h1.5c.261 0 .509-.043.75-.105a2.986 2.986 0 0 1-2.25-2.895v-9.504c0-.534-.1-1.03-.49-1.373-.418-.386-.786-.372-1.244-.372H17.25v-6h8.25c1.662 0 3-1.338 3-3v-1.5c0-.261-.043-.51-.105-.75a2.986 2.986 0 0 1-2.895 2.25h-9.506c-.547 0-1.028.144-1.281.398-.37.341-.463.837-.463 1.341v7.26h-6v-8.25c0-1.662-1.338-3-3-3h-1.5zm7.5 6.75a1.5 1.5 0 1 0 0 3 1.5 1.5 0 0 0 0-3zm9 0a1.5 1.5 0 1 0 0 3 1.5 1.5 0 0 0 0-3zm-9 9a1.5 1.5 0 1 0 0 3 1.5 1.5 0 0 0 0-3zm9 0a1.5 1.5 0 1 0 0 3 1.5 1.5 0 0 0 0-3z" overflow="visible" style="line-height:normal;text-indent:0;text-align:start;text-decoration-line:none;text-decoration-style:solid;text-decoration-color:#000;text-transform:none;block-progression:tb;isolation:auto;mix-blend-mode:normal" transform="translate(0 -1020.362)"></path>
    <path fill="#d60724" d="M4.25 1023.862c1.662 0 3 1.338 3 3v8.25h1v-8.25c0-1.662-1.338-3-3-3h-1zm24.145 0a3.004 3.004 0 0 1-.895 1.469v.781c0 1.662-1.338 3-3 3h1c1.662 0 3-1.338 3-3v-1.5c0-.26-.043-.509-.105-.75zm-12.145 5.25v6h1v-6h-1zm-5 1.5c-.176 0-.343.036-.5.092.581.207 1 .756 1 1.408 0 .653-.419 1.2-1 1.407.157.056.324.094.5.094a1.5 1.5 0 0 0 0-3zm9 0c-.176 0-.343.036-.5.092.581.207 1 .756 1 1.408 0 .653-.419 1.2-1 1.407.157.056.324.094.5.094a1.5 1.5 0 0 0 0-3zm3.266 4.5c.458 0 .826-.013 1.244.373.39.343.49.84.49 1.373v9.504c0 1.401.956 2.562 2.25 2.895a2.991 2.991 0 0 1-.75.105h1c.261 0 .509-.043.75-.105a2.986 2.986 0 0 1-2.25-2.895v-9.504c0-.534-.1-1.03-.49-1.373-.418-.386-.786-.373-1.244-.373h-1zm-7.266 3v7.258c0 .929-.52 1.742-1.5 1.742h1c.98 0 1.5-.814 1.5-1.742v-7.258h-1zm-5 1.5c-.176 0-.343.036-.5.092.581.207 1 .756 1 1.408 0 .653-.419 1.2-1 1.407.157.056.324.094.5.094a1.5 1.5 0 0 0 0-3zm9 0c-.176 0-.343.036-.5.092.581.207 1 .756 1 1.408 0 .653-.419 1.2-1 1.407.157.056.324.094.5.094a1.5 1.5 0 0 0 0-3zm-15.25 7.5c-.776 0-1.471.3-2 .781v.72c0 .26.043.508.106.75a2.986 2.986 0 0 1 2.894-2.25H5z" overflow="visible" style="line-height:normal;text-indent:0;text-align:start;text-decoration-line:none;text-decoration-style:solid;text-decoration-color:#000;text-transform:none;block-progression:tb;isolation:auto;mix-blend-mode:normal" transform="translate(0 -1020.362)"></path>
  </g>
</svg>
